<?xml version="1.0" encoding="utf-8"?>
<!-- Generator: Adobe Illustrator 27.0.1, SVG Export Plug-In . SVG Version: 6.00 Build 0)  -->
<svg version="1.1" id="Layer_1" xmlns="http://www.w3.org/2000/svg" xmlns:xlink="http://www.w3.org/1999/xlink" x="0px" y="0px"
	 viewBox="0 0 32 32" style="enable-background:new 0 0 32 32;" xml:space="preserve">
<style type="text/css">
	.st0{fill:url(#SVGID_1_);}
	.st1{fill:#FFFFFF;}
</style>
<linearGradient id="SVGID_1_" gradientUnits="userSpaceOnUse" x1="-952.2812" y1="986.2812" x2="-951.2812" y2="985.2812" gradientTransform="matrix(32 0 0 -32 30473 31561)">
	<stop  offset="0" style="stop-color:#2563EB"/>
	<stop  offset="1" style="stop-color:#4F46E5"/>
</linearGradient>
<path class="st0" d="M8,0h16c4.4,0,8,3.6,8,8v16c0,4.4-3.6,8-8,8H8c-4.4,0-8-3.6-8-8V8C0,3.6,3.6,0,8,0z"/>
<g>
	<polygon class="st1" points="11.9,10 11.9,20.5 7.5,20.5 7.5,10 4.5,10 4.5,23.4 7.3,23.4 7.5,23.4 11.9,23.4 12.5,23.4 14.8,23.4 
		14.8,18.3 17.6,18.3 17.6,15.6 14.8,15.6 14.8,12.7 19.8,12.7 19.8,10 14.8,10 	"/>
	<rect x="20.9" y="10" class="st1" width="2.9" height="13.4"/>
	<rect x="24.9" y="10" class="st1" width="4.5" height="2.7"/>
</g>
</svg>
